<svg width="1241" height="881" viewBox="0 0 1241 881" fill="none" xmlns="http://www.w3.org/2000/svg">
  <g filter="url(#filter0_d)">
    <path
      d="M136.186 454.47C118.191 334.515 77.9875 324.059 47.0727 263.51C18.928 208.435 -3.76921 118.334 75.6597 53.9202C199.04 -46.2173 350.355 56.249 350.355 56.249C350.355 56.249 590.132 193.647 632.034 200.633C673.937 207.62 776.366 277.483 904.402 193.647C1032.44 109.811 1141.85 116.797 1176.77 179.674C1211.69 242.551 1132.54 424.196 1113.92 461.457C1095.29 498.717 1123.23 615.156 1153.49 661.732C1183.75 708.307 1279.2 852.691 1074.34 848.034C869.483 843.376 254.91 850.363 254.91 850.363C254.91 850.363 34.2924 846.241 73.3317 631.457C105.923 452.141 143.17 501.046 136.186 454.47Z"
      fill="#F8F9FC" />
    <path d="M832.332 237.746L761.008 177.768L701.03 249.092L772.354 309.07L832.332 237.746Z" stroke="black"
      stroke-width="5" stroke-miterlimit="10" />
    <path
      d="M215.335 438.169C241.049 438.169 261.894 417.317 261.894 391.594C261.894 365.871 241.049 345.018 215.335 345.018C189.622 345.018 168.777 365.871 168.777 391.594C168.777 417.317 189.622 438.169 215.335 438.169Z"
      fill="#774DF5" />
    <path
      d="M137.35 480.087C154.706 480.087 168.777 466.012 168.777 448.649C168.777 431.286 154.706 417.21 137.35 417.21C119.993 417.21 105.923 431.286 105.923 448.649C105.923 466.012 119.993 480.087 137.35 480.087Z"
      fill="#774DF5" />
    <path
      d="M142.006 393.922C151.648 393.922 159.465 386.103 159.465 376.457C159.465 366.81 151.648 358.991 142.006 358.991C132.363 358.991 124.546 366.81 124.546 376.457C124.546 386.103 132.363 393.922 142.006 393.922Z"
      fill="#774DF5" />
    <path
      d="M1174.44 752.555C1200.15 752.555 1221 731.702 1221 705.979C1221 680.256 1200.15 659.403 1174.44 659.403C1148.73 659.403 1127.88 680.256 1127.88 705.979C1127.88 731.702 1148.73 752.555 1174.44 752.555Z"
      fill="#774DF5" />
    <path
      d="M55.8723 172.688C65.5149 172.688 73.3317 164.869 73.3317 155.222C73.3317 145.576 65.5149 137.757 55.8723 137.757C46.2297 137.757 38.4128 145.576 38.4128 155.222C38.4128 164.869 46.2297 172.688 55.8723 172.688Z"
      fill="#774DF5" />
    <path
      d="M346.863 785.157C392.505 785.157 429.504 748.144 429.504 702.486C429.504 656.827 392.505 619.814 346.863 619.814C301.221 619.814 264.222 656.827 264.222 702.486C264.222 748.144 301.221 785.157 346.863 785.157Z"
      fill="#E42F9F" />
    <path
      d="M892.762 824.746C923.619 824.746 948.633 799.723 948.633 768.856C948.633 737.988 923.619 712.965 892.762 712.965C861.906 712.965 836.892 737.988 836.892 768.856C836.892 799.723 861.906 824.746 892.762 824.746Z"
      fill="#E42F9F" />
    <path
      d="M1106.93 510.361C1123.65 510.361 1137.19 496.807 1137.19 480.087C1137.19 463.367 1123.65 449.813 1106.93 449.813C1090.22 449.813 1076.67 463.367 1076.67 480.087C1076.67 496.807 1090.22 510.361 1106.93 510.361Z"
      fill="#E42F9F" />
    <path
      d="M881.123 268.168C914.55 268.168 941.649 241.06 941.649 207.62C941.649 174.18 914.55 147.072 881.123 147.072C847.695 147.072 820.596 174.18 820.596 207.62C820.596 241.06 847.695 268.168 881.123 268.168Z"
      fill="#E42F9F" />
    <path
      d="M325.912 74.8796C341.983 74.8796 355.011 61.8468 355.011 45.7699C355.011 29.693 341.983 16.6602 325.912 16.6602C309.841 16.6602 296.813 29.693 296.813 45.7699C296.813 61.8468 309.841 74.8796 325.912 74.8796Z"
      fill="#E42F9F" />
    <path
      d="M232.795 654.746C248.866 654.746 261.894 641.713 261.894 625.636C261.894 609.559 248.866 596.526 232.795 596.526C216.724 596.526 203.696 609.559 203.696 625.636C203.696 641.713 216.724 654.746 232.795 654.746Z"
      fill="#E42F9F" />
    <path
      d="M1170.95 317.073C1187.02 317.073 1200.05 304.04 1200.05 287.963C1200.05 271.886 1187.02 258.853 1170.95 258.853C1154.88 258.853 1141.85 271.886 1141.85 287.963C1141.85 304.04 1154.88 317.073 1170.95 317.073Z"
      fill="#774DF5" />
    <path
      d="M1124.39 813.103C1141.75 813.103 1155.82 799.027 1155.82 781.664C1155.82 764.301 1141.75 750.226 1124.39 750.226C1107.03 750.226 1092.96 764.301 1092.96 781.664C1092.96 799.027 1107.03 813.103 1124.39 813.103Z"
      fill="#774DF5" />
    <path
      d="M1194.23 815.432C1203.87 815.432 1211.69 807.612 1211.69 797.966C1211.69 788.319 1203.87 780.5 1194.23 780.5C1184.59 780.5 1176.77 788.319 1176.77 797.966C1176.77 807.612 1184.59 815.432 1194.23 815.432Z"
      fill="#774DF5" />
    <path
      d="M798.919 504.407H975.299C975.299 504.407 981.865 504.108 981.865 496.349V481.128H791.906V499.482C792.951 502.616 795.637 504.556 798.919 504.407Z"
      fill="#040404" />
    <path
      d="M791.906 366.676L791.757 487.098L981.716 485.307V363.095C981.716 363.095 982.909 356.081 975.448 356.081H799.069C799.069 356.231 791.16 356.231 791.906 366.676Z"
      fill="#040404" />
    <path d="M871.889 536.788V503.213L899.644 504.407V533.804L871.889 536.788Z" fill="#040404" />
    <path d="M827.719 533.356H943.216L943.366 539.175H827.719V533.356Z" fill="#040404" />
    <path
      d="M885.169 489.485C888.303 489.485 890.69 491.872 890.69 495.006C890.69 498.14 888.303 500.527 885.169 500.527C882.035 500.527 879.648 498.14 879.648 495.006C879.648 491.872 882.184 489.485 885.169 489.485Z"
      fill="white" />
    <path d="M976.045 362.05H797.726V479.039H976.045V362.05Z" fill="#F8F8FF" />
    <path
      d="M806.679 368.019C808.171 368.019 809.514 369.362 809.514 370.854C809.514 372.346 808.171 373.689 806.679 373.689C805.186 373.689 803.844 372.346 803.844 370.854C803.844 369.362 805.186 368.019 806.679 368.019Z"
      fill="#FA5F5D" />
    <path
      d="M816.229 368.019C817.721 368.019 819.064 369.362 819.064 370.854C819.064 372.346 817.721 373.689 816.229 373.689C814.737 373.689 813.394 372.346 813.394 370.854C813.394 369.362 814.587 368.019 816.229 368.019Z"
      fill="#FDBC4E" />
    <path
      d="M826.078 368.019C827.57 368.019 828.913 369.362 828.913 370.854C828.913 372.346 827.57 373.689 826.078 373.689C824.585 373.689 823.242 372.346 823.242 370.854C823.392 369.362 824.585 368.019 826.078 368.019Z"
      fill="#37CD58" />
    <path
      d="M864.875 388.462C864.726 389.955 863.532 391.148 862.04 390.999H827.868C826.077 390.999 824.436 389.805 824.436 388.462V383.24C824.436 381.897 826.077 380.554 827.868 380.554H861.891C863.383 380.404 864.726 381.598 864.875 383.09V383.24V388.462Z"
      fill="url(#paint0_linear)" />
    <path
      d="M947.096 422.932C946.947 424.574 945.604 425.767 943.962 425.767H827.868C826.077 425.767 824.436 424.424 824.436 422.932V397.266C824.436 395.774 826.227 394.431 827.868 394.431H943.962C945.604 394.282 946.947 395.625 947.096 397.266V422.932Z"
      fill="url(#paint1_linear)" />
    <path
      d="M862.637 444.868C862.637 446.36 861.294 447.703 859.802 447.703H827.868C826.077 447.703 824.436 446.36 824.436 444.868V430.692C824.436 429.2 826.227 427.857 827.868 427.857H859.652C861.145 427.707 862.487 428.901 862.637 430.543V430.692V444.868Z"
      fill="url(#paint2_linear)" />
    <path
      d="M904.269 444.868C904.269 446.36 902.926 447.703 901.434 447.703H869.5C867.71 447.703 866.068 446.36 866.068 444.868V430.692C866.068 429.2 867.859 427.857 869.5 427.857H901.285C902.777 427.707 904.12 428.901 904.269 430.543V430.692V444.868Z"
      fill="url(#paint3_linear)" />
    <path
      d="M947.096 444.868C946.947 446.509 945.604 447.703 943.962 447.703H912.178C910.388 447.852 909.045 446.509 908.746 444.868V430.692C908.895 428.901 910.388 427.856 912.178 427.856H943.962C945.604 427.707 947.096 429.05 947.245 430.692L947.096 444.868Z"
      fill="url(#paint4_linear)" />
    <path
      d="M904.27 452.926C903.972 453.523 903.524 453.821 902.927 453.97C902.778 453.97 902.778 453.97 902.629 453.523H867.711C866.965 453.97 865.92 453.523 865.92 452.926V452.478C865.92 451.881 866.965 451.284 867.711 451.135H902.629C903.226 451.284 903.524 451.732 903.673 452.18C903.673 452.329 903.673 452.329 903.972 452.478L904.27 452.926Z"
      fill="#ACAEB6" />
    <path
      d="M904.27 457.402C903.972 457.999 903.524 458.447 902.927 458.596C902.927 458.596 902.778 458.596 902.778 458.148H867.711C866.965 458.596 865.92 458.148 865.92 457.402V456.955C865.92 456.358 866.965 455.91 867.711 455.761H902.629C903.226 455.91 903.822 456.358 903.972 456.955L904.27 457.402Z"
      fill="#ACAEB6" />
    <path
      d="M904.269 462.028C903.971 462.774 903.523 463.222 902.926 463.371C902.926 463.072 902.926 463.072 902.926 462.774H867.859C867.262 463.072 866.516 463.072 866.218 462.476C866.068 462.326 866.068 462.177 866.068 462.177V461.729C866.068 461.133 867.113 460.834 867.859 460.536H902.777C903.374 460.685 903.971 461.133 904.12 461.729L904.269 462.028Z"
      fill="#ACAEB6" />
    <path
      d="M904.269 466.505C903.971 467.251 903.523 467.848 902.926 468.445H867.859C867.113 467.848 866.068 467.102 866.068 466.505V466.058C866.068 465.461 867.113 464.715 867.859 465.013H902.777C903.224 464.864 903.672 465.311 903.821 465.759C903.821 465.908 903.821 466.058 903.821 466.058C903.821 466.058 903.821 466.058 904.12 466.207L904.269 466.505Z"
      fill="#ACAEB6" />
    <path
      d="M884.87 471.131C884.87 471.728 884.572 471.877 883.826 471.877H867.71C866.964 471.877 866.068 471.579 866.068 471.131V470.683C866.068 470.086 866.964 469.639 867.71 469.639H883.826C884.423 469.639 884.87 470.086 884.87 470.683V471.131Z"
      fill="#ACAEB6" />
    <path
      d="M947.096 452.926C946.35 453.523 946.499 453.97 945.753 453.523H910.835C910.238 453.97 909.641 453.672 909.641 453.075C909.641 453.075 909.641 453.075 909.94 452.926V452.478C909.641 451.881 910.089 451.284 910.686 451.135H945.604C946.35 451.434 946.201 451.881 946.947 452.478V452.926H947.096Z"
      fill="#ACAEB6" />
    <path
      d="M947.096 457.402C946.35 457.999 946.499 458.596 945.753 458.148H910.835C910.089 458.596 909.641 458.148 910.089 457.402V456.955C909.79 456.358 910.238 455.91 910.835 455.761H945.753C946.499 456.059 946.35 456.358 947.096 456.955V457.402Z"
      fill="#ACAEB6" />
    <path
      d="M947.096 462.028C946.35 462.625 946.499 463.371 945.753 462.774H910.835C910.089 463.222 909.641 462.774 910.089 462.028V461.58C909.79 460.983 910.238 460.685 910.835 460.386H945.753C946.499 460.685 946.35 460.983 947.096 461.58V462.028Z"
      fill="#ACAEB6" />
    <path
      d="M947.096 466.505C946.35 467.102 946.499 467.848 945.753 468.445H910.835C910.089 467.699 909.641 467.102 910.089 466.505V466.058C909.79 465.759 909.79 465.311 910.089 465.162C910.387 465.013 910.536 464.864 910.835 465.013H945.902C946.648 464.715 946.499 465.461 947.245 466.058V466.505H947.096Z"
      fill="#ACAEB6" />
    <path
      d="M927.847 471.131C927.847 471.728 927.847 471.877 927.25 471.877H910.985C910.239 471.877 909.94 471.579 909.94 471.131V470.683C909.94 470.086 910.388 469.639 910.985 469.639H927.101C927.847 469.639 927.698 470.086 927.698 470.683L927.847 471.131Z"
      fill="#ACAEB6" />
    <path
      d="M861.442 452.926C861.89 453.523 861.741 453.97 860.995 453.523H825.928C825.48 453.821 824.883 453.821 824.585 453.374C824.436 453.224 824.436 453.075 824.286 452.926V452.478C824.585 451.732 825.032 451.284 825.779 451.135H860.696C861.442 451.434 861.592 451.881 861.144 452.478L861.442 452.926Z"
      fill="#ACAEB6" />
    <path
      d="M861.443 457.402C861.891 457.999 861.741 458.596 860.995 458.148H825.928C825.182 458.745 824.585 458.148 824.436 457.402V456.955C824.585 456.358 825.182 455.91 825.928 455.761H860.846C861.592 456.059 861.741 456.358 861.294 456.955L861.443 457.402Z"
      fill="#ACAEB6" />
    <path
      d="M861.443 462.028C861.891 462.625 861.741 463.371 860.995 462.774H825.928C825.182 463.371 824.585 462.774 824.436 462.028V461.58C824.585 460.983 825.182 460.685 825.928 460.386H860.846C861.592 460.685 861.741 460.983 861.294 461.58L861.443 462.028Z"
      fill="#ACAEB6" />
    <path
      d="M850.997 465.013H860.995C861.741 464.715 861.891 465.461 861.443 466.058V466.505C861.891 467.102 861.741 467.848 860.995 468.445H825.928C825.182 467.997 824.734 467.251 824.436 466.505V466.058C824.585 465.311 825.182 464.864 825.928 465.013H850.997Z"
      fill="#ACAEB6" />
    <path
      d="M844.133 471.131C844.133 471.728 843.835 471.877 843.089 471.877H825.779C825.033 471.877 824.436 471.579 824.436 471.131V470.683C824.585 470.086 825.182 469.639 825.779 469.639H843.089C843.686 469.639 844.133 470.086 844.133 470.534C844.133 470.534 844.133 470.534 844.133 470.683V471.131Z"
      fill="#ACAEB6" />
    <path d="M702.97 248.791L758.928 182.089L825.63 238.196L769.672 304.749L702.97 248.791Z" fill="url(#paint5_linear)"
      stroke="url(#paint6_linear)" stroke-width="5" stroke-miterlimit="10" />
    <path d="M686.406 260.766L699.27 244.911L774.787 309.417L761.923 325.272L686.406 260.766Z" fill="black"
      stroke="black" stroke-miterlimit="10" />
    <path
      d="M784.147 247.299C779.372 247.299 722.668 263.266 722.668 263.266L766.688 300.571L774.448 281.172C774.448 281.172 785.639 247.299 784.147 247.299Z"
      fill="white" />
    <path d="M761.764 173.435H674.171V261.028H761.764V173.435Z" fill="url(#paint7_linear)" stroke="url(#paint8_linear)"
      stroke-miterlimit="10" />
    <path d="M761.018 172.688H673.425V260.281H761.018V172.688Z" stroke="black" stroke-width="5"
      stroke-miterlimit="10" />
    <path d="M763.617 260.579H670.979V280.127H763.617V260.579Z" fill="black" />
    <path d="M722.369 258.789L747.14 217.156L760.122 235.212V259.535H749.975L722.369 258.789Z" fill="white" />
    <path d="M698.643 259.237L728.189 219.843L751.467 259.536L698.643 259.237Z" fill="white" />
    <path
      d="M701.031 189.55C704.911 189.55 708.044 192.684 708.044 196.564C708.044 200.443 704.911 203.577 701.031 203.577C697.151 203.577 694.017 200.443 694.017 196.564C694.017 192.684 697.151 189.55 701.031 189.55Z"
      fill="white" />
    <path
      d="M676.11 521.569C676.11 524.702 673.723 527.09 670.589 527.09H590.308C587.323 527.09 584.787 524.702 584.787 521.569V351.307C584.787 348.323 587.174 345.786 590.308 345.786H670.589C673.573 345.786 676.11 348.173 676.11 351.307V521.569Z"
      fill="url(#paint9_linear)" />
    <path d="M667.903 369.96H594.038V504.259H667.903V369.96Z" fill="white" />
    <path d="M594.188 504.408V369.811L643.878 369.661L614.332 504.259L594.188 504.408Z" fill="white" />
    <path
      d="M624.927 359.066H635.82C636.566 359.066 637.312 359.663 637.312 360.558C637.312 361.304 636.715 362.051 635.82 362.051H624.927C624.181 362.051 623.435 361.454 623.435 360.558C623.435 359.663 624.031 359.066 624.927 359.066Z"
      fill="black" stroke="black" stroke-miterlimit="10" />
    <path
      d="M630.448 355.186C631.19 355.186 631.791 354.585 631.791 353.843C631.791 353.102 631.19 352.5 630.448 352.5C629.707 352.5 629.105 353.102 629.105 353.843C629.105 354.585 629.707 355.186 630.448 355.186Z"
      fill="black" />
    <path
      d="M630.448 511.123C632.836 511.123 634.776 513.063 634.776 515.45C634.776 517.838 632.836 519.778 630.448 519.778C628.061 519.778 626.121 517.838 626.121 515.45C626.27 513.063 628.061 511.123 630.448 511.123Z"
      fill="url(#paint10_linear)" stroke="url(#paint11_linear)" stroke-miterlimit="10" />
    <path
      d="M630.448 519.778C632.838 519.778 634.776 517.84 634.776 515.45C634.776 513.06 632.838 511.123 630.448 511.123C628.058 511.123 626.121 513.06 626.121 515.45C626.121 517.84 628.058 519.778 630.448 519.778Z"
      stroke="black" stroke-width="2" stroke-miterlimit="10" />
    <g clip-path="url(#clip0)">
      <path
        d="M526.126 808.14C522.796 805.989 518.871 803.24 509.118 801.327C501.149 799.893 496.391 787.342 496.391 787.342H477.837C477.837 787.342 476.172 808.14 477.004 809.814C477.837 811.487 478.313 813.28 482.594 814.595C486.876 815.909 524.461 815.431 526.126 815.073C527.791 814.714 532.43 812.204 526.126 808.14Z"
        fill="#774DF5" />
      <path
        d="M310.372 608.169C307.874 611.875 296.932 647.972 296.813 649.765C296.694 651.558 297.645 656.698 303.354 651.917C306.447 649.287 310.253 646.419 314.891 637.573C318.697 630.402 332.019 629.565 332.019 629.565L337.728 611.875C337.728 611.875 318.46 603.986 316.557 604.225C314.654 604.464 312.869 604.464 310.372 608.169Z"
        fill="#774DF5" />
      <path
        d="M432.521 542.668C432.046 542.788 431.451 546.254 431.332 546.732C428.596 555.577 402.787 634.466 402.787 637.813C402.787 641.159 347.48 616.059 338.56 612.114C337.846 611.755 337.133 612.114 336.776 612.712C334.992 616.537 329.878 627.892 331.662 629.207C333.922 630.76 392.082 672.476 396.84 673.671C401.597 674.866 408.734 680.843 420.627 666.499C430.856 654.188 459.401 607.572 467.37 594.543C467.727 593.946 468.56 593.707 469.154 594.065C469.511 594.304 469.749 594.663 469.868 595.141C471.295 607.692 471.89 656.34 476.053 669.368C480.216 682.397 474.269 696.382 474.269 715.506L477.718 785.908C477.718 786.625 478.313 787.223 479.026 787.223L495.083 787.582C495.796 787.582 496.391 787.103 496.51 786.386C497.581 775.031 508.166 689.927 509.236 676.659C510.426 662.316 517.324 541.951 515.421 534.66C513.994 530.118 441.323 541.234 432.521 542.668Z"
        fill="#161616" />
      <path
        d="M438.468 330.744C438.468 330.744 442.512 314.489 445.724 314.489C448.935 314.489 468.441 316.879 470.819 328.354C473.198 339.829 482.119 346.283 482.119 360.148C482.119 374.014 487.828 380.468 487.828 380.468C487.828 380.468 494.25 360.029 499.008 351.184C503.765 342.339 512.21 336.721 512.21 330.744C512.21 324.768 505.074 256.876 504.479 255.083C503.884 253.29 502.1 242.533 506.263 236.437C506.263 236.437 519.108 225.799 520.774 221.496C522.082 217.91 526.245 215.878 528.623 220.061C531.002 224.245 521.13 235.6 519.465 240.142C518.038 244.445 516.968 248.868 516.492 253.41C516.492 254.605 514.113 272.654 514.113 281.618C514.113 290.583 519.465 318.911 519.465 327.876C519.465 336.84 499.721 372.818 497.937 379.512C496.153 386.206 438.706 449.197 437.517 450.99C436.327 452.783 430.38 466.648 430.38 471.429C430.38 476.21 430.38 491.869 432.759 488.88C435.138 485.892 445.01 461.987 446.794 458.998C448.578 456.01 462.732 453.141 469.392 451.349C476.053 449.556 485.806 453.141 484.616 457.325C483.427 461.508 464.04 469.397 457.855 470.951C453.93 471.907 436.922 490.793 435.733 496.172C434.543 501.55 418.962 493.781 418.962 486.012C418.962 478.242 420.746 438.559 423.125 433.18C425.504 427.801 436.327 404.374 442.274 392.302C448.221 380.229 435.138 374.253 432.759 365.886C430.38 357.519 438.468 330.744 438.468 330.744Z"
        fill="url(#paint12_linear)" />
      <path
        d="M489.849 369.113C489.849 369.113 505.43 341.024 506.977 333.972C508.523 326.919 504.598 254.844 504.598 254.844L516.611 253.051C516.611 253.051 528.148 319.867 529.694 327.637C531.24 335.406 525.65 352.14 520.298 361.583C514.945 371.025 500.197 410.589 500.197 415.251C500.197 419.912 501.149 464.257 503.527 472.863C505.906 481.47 515.54 534.899 515.54 534.899L432.283 542.788C432.283 542.788 435.97 519.479 435.733 511.71C435.138 494.618 430.499 481.948 442.869 473.939C451.195 468.68 459.044 471.19 467.965 466.768C478.312 461.628 480.691 457.444 481.286 454.576C481.643 452.902 479.026 449.077 462.969 455.054C457.617 457.086 446.794 456.966 446.556 463.899C446.437 469.756 453.93 482.426 444.891 488.163C444.891 488.163 434.543 512.666 424.909 516.491C416.584 519.719 406.712 510.873 406.95 499.279C407.187 485.414 408.02 458.879 414.324 447.284C420.627 435.69 437.873 405.928 440.966 403.537C444.058 401.147 453.454 412.502 464.397 410.948C475.339 409.394 479.859 404.254 482.237 398.876C484.616 393.497 489.849 369.113 489.849 369.113Z"
        fill="url(#paint13_linear)" />
      <path
        d="M455.12 318.074C459.996 325.963 466.3 332.776 473.674 338.394C486.281 348.195 473.793 375.448 473.198 389.074C472.722 399.951 479.145 415.012 494.726 425.172C505.906 432.582 498.056 449.316 498.056 457.683C498.056 466.05 516.135 445.85 516.849 436.288C517.681 424.454 514.708 416.088 506.382 406.525C498.651 397.561 489.612 363.973 487.114 348.076C486.876 346.403 486.757 344.849 486.876 343.175C487.114 337.557 486.4 319.748 470.463 309.707C451.433 297.754 439.539 308.751 431.808 315.325C422.412 323.334 418.606 345.685 420.984 380.349C423.363 415.012 417.416 434.734 413.372 444.774C404.095 467.604 429.31 451.587 433.949 438.439C439.896 421.586 444.058 420.271 452.503 407.123C455.833 401.983 451.433 384.532 447.745 377.241C440.728 363.136 436.684 357.28 436.684 347.717C436.684 338.155 447.983 321.66 455.12 318.074Z"
        fill="#1B1B1B" />
      <path opacity="0.07"
        d="M458.807 379.99C458.807 379.99 472.247 380.827 475.934 372.221C476.291 371.264 473.793 398.517 473.079 394.931C472.128 391.226 458.807 379.99 458.807 379.99Z"
        fill="black" />
      <path opacity="0.07"
        d="M435.138 442.981C435.138 442.981 432.046 462.345 430.38 471.19C429.429 475.971 428.834 480.752 428.715 485.653C428.715 485.653 440.133 471.31 443.82 465.572C446.08 461.986 439.182 463.779 438.587 450.631C437.993 437.483 438.111 428.997 438.111 428.997L435.138 442.981Z"
        fill="black" />
      <path opacity="0.07"
        d="M436.089 505.256C436.089 505.256 446.318 495.216 446.794 489.956C447.388 483.024 452.265 483.382 452.265 487.685C452.265 491.988 444.653 524.141 449.291 532.628C453.93 541.114 457.617 540.995 457.617 540.995L432.64 542.788L436.089 505.256Z"
        fill="black" />
      <path opacity="0.07"
        d="M457.498 540.875C457.498 540.875 458.926 566.454 449.886 574.941C431.451 592.272 442.274 614.983 434.067 624.904C427.169 633.151 425.385 656.937 408.853 662.196C402.311 664.348 378.761 649.885 374.004 648.212C363.894 644.745 356.758 625.262 325.239 615.222C317.865 612.831 344.626 615.341 344.626 615.341L402.668 639.486L432.64 542.788L457.498 540.875Z"
        fill="black" />
    </g>
  </g>
  <defs>
    <filter id="filter0_d" x="0" y="0" width="1241" height="881" filterUnits="userSpaceOnUse"
      color-interpolation-filters="sRGB">
      <feFlood flood-opacity="0" result="BackgroundImageFix" />
      <feColorMatrix in="SourceAlpha" type="matrix" values="0 0 0 0 0 0 0 0 0 0 0 0 0 0 0 0 0 0 127 0" />
      <feOffset dy="10" />
      <feGaussianBlur stdDeviation="10" />
      <feColorMatrix type="matrix" values="0 0 0 0 0 0 0 0 0 0 0 0 0 0 0 0 0 0 0.25 0" />
      <feBlend mode="normal" in2="BackgroundImageFix" result="effect1_dropShadow" />
      <feBlend mode="normal" in="SourceGraphic" in2="effect1_dropShadow" result="shape" />
    </filter>
    <linearGradient id="paint0_linear" x1="824.436" y1="380.541" x2="829.518" y2="400.167"
      gradientUnits="userSpaceOnUse">
      <stop stop-color="#43CBFF" />
      <stop offset="1" stop-color="#9708CC" />
    </linearGradient>
    <linearGradient id="paint1_linear" x1="824.436" y1="394.419" x2="839.477" y2="453.271"
      gradientUnits="userSpaceOnUse">
      <stop stop-color="#E42F9F" />
      <stop offset="1" stop-color="#0D25B9" />
    </linearGradient>
    <linearGradient id="paint2_linear" x1="824.436" y1="427.844" x2="840.691" y2="459.112"
      gradientUnits="userSpaceOnUse">
      <stop stop-color="#E42F9F" />
      <stop offset="1" stop-color="#0D25B9" />
    </linearGradient>
    <linearGradient id="paint3_linear" x1="866.068" y1="427.844" x2="882.323" y2="459.112"
      gradientUnits="userSpaceOnUse">
      <stop stop-color="#E42F9F" />
      <stop offset="1" stop-color="#0D25B9" />
    </linearGradient>
    <linearGradient id="paint4_linear" x1="908.746" y1="427.845" x2="924.941" y2="459.225"
      gradientUnits="userSpaceOnUse">
      <stop stop-color="#E42F9F" />
      <stop offset="1" stop-color="#0D25B9" />
    </linearGradient>
    <linearGradient id="paint5_linear" x1="702.97" y1="182.089" x2="825.63" y2="304.749" gradientUnits="userSpaceOnUse">
      <stop stop-color="#E42F9F" />
      <stop offset="1" stop-color="#0D25B9" />
    </linearGradient>
    <linearGradient id="paint6_linear" x1="702.97" y1="182.089" x2="825.63" y2="304.749" gradientUnits="userSpaceOnUse">
      <stop stop-color="#E42F9F" />
      <stop offset="1" stop-color="#0D25B9" />
    </linearGradient>
    <linearGradient id="paint7_linear" x1="674.171" y1="173.435" x2="761.764" y2="261.028"
      gradientUnits="userSpaceOnUse">
      <stop stop-color="#E42F9F" />
      <stop offset="1" stop-color="#0D25B9" />
    </linearGradient>
    <linearGradient id="paint8_linear" x1="674.171" y1="173.435" x2="761.764" y2="261.028"
      gradientUnits="userSpaceOnUse">
      <stop stop-color="#E42F9F" />
      <stop offset="1" stop-color="#0D25B9" />
    </linearGradient>
    <linearGradient id="paint9_linear" x1="584.787" y1="345.786" x2="730.471" y2="419.168"
      gradientUnits="userSpaceOnUse">
      <stop stop-color="#E42F9F" />
      <stop offset="1" stop-color="#0D25B9" />
    </linearGradient>
    <linearGradient id="paint10_linear" x1="626.121" y1="511.123" x2="634.776" y2="519.778"
      gradientUnits="userSpaceOnUse">
      <stop stop-color="#E42F9F" />
      <stop offset="1" stop-color="#0D25B9" />
    </linearGradient>
    <linearGradient id="paint11_linear" x1="626.121" y1="511.123" x2="634.776" y2="519.778"
      gradientUnits="userSpaceOnUse">
      <stop stop-color="#E42F9F" />
      <stop offset="1" stop-color="#0D25B9" />
    </linearGradient>
    <linearGradient id="paint12_linear" x1="386.305" y1="391.151" x2="554.24" y2="272.305"
      gradientUnits="userSpaceOnUse">
      <stop offset="0.233352" stop-color="#F89C51" />
      <stop offset="0.942708" stop-color="#E8B436" />
    </linearGradient>
    <linearGradient id="paint13_linear" x1="419.124" y1="458.484" x2="591.555" y2="339.063"
      gradientUnits="userSpaceOnUse">
      <stop stop-color="#7658F4" />
      <stop offset="1" stop-color="#E42F9F" />
    </linearGradient>
    <clipPath id="clip0">
      <rect width="233" height="598" fill="white" transform="translate(296.813 217.432)" />
    </clipPath>
  </defs>
</svg>