<svg width="1241" height="881" viewBox="0 0 1241 881" fill="none" xmlns="http://www.w3.org/2000/svg">
  <g filter="url(#filter0_d)">
    <path
      d="M135.19 454.46C117.195 334.504 76.9919 324.048 46.077 263.5C17.9324 208.424 -4.76482 118.324 74.6641 53.9097C198.044 -46.2278 349.359 56.2385 349.359 56.2385C349.359 56.2385 589.136 193.636 631.039 200.623C672.941 207.609 775.37 277.473 903.406 193.636C1031.44 109.8 1140.85 116.787 1175.77 179.664C1210.69 242.541 1131.54 424.186 1112.92 461.446C1094.3 498.707 1122.23 615.146 1152.49 661.721C1182.76 708.297 1278.2 852.681 1073.34 848.023C868.487 843.366 253.914 850.352 253.914 850.352C253.914 850.352 33.2968 846.23 72.3361 631.447C104.927 452.131 142.174 501.035 135.19 454.46Z"
      fill="#F8F9FC" />
    <path
      d="M214.501 440.489C240.236 440.489 261.098 419.62 261.098 393.877C261.098 368.134 240.236 347.266 214.501 347.266C188.766 347.266 167.904 368.134 167.904 393.877C167.904 419.62 188.766 440.489 214.501 440.489Z"
      fill="#774DF5" />
    <path
      d="M136.451 482.439C153.822 482.439 167.904 468.353 167.904 450.976C167.904 433.6 153.822 419.514 136.451 419.514C119.08 419.514 104.998 433.6 104.998 450.976C104.998 468.353 119.08 482.439 136.451 482.439Z"
      fill="#774DF5" />
    <path
      d="M141.11 396.208C150.761 396.208 158.584 388.382 158.584 378.728C158.584 369.075 150.761 361.249 141.11 361.249C131.46 361.249 123.636 369.075 123.636 378.728C123.636 388.382 131.46 396.208 141.11 396.208Z"
      fill="#774DF5" />
    <path
      d="M1174.4 755.117C1200.14 755.117 1221 734.248 1221 708.505C1221 682.762 1200.14 661.894 1174.4 661.894C1148.67 661.894 1127.81 682.762 1127.81 708.505C1127.81 734.248 1148.67 755.117 1174.4 755.117Z"
      fill="#774DF5" />
    <path
      d="M54.9056 174.803C64.5562 174.803 72.3795 166.978 72.3795 157.324C72.3795 147.67 64.5562 139.845 54.9056 139.845C45.255 139.845 37.4316 147.67 37.4316 157.324C37.4316 166.978 45.255 174.803 54.9056 174.803Z"
      fill="#774DF5" />
    <path
      d="M346.138 787.744C391.817 787.744 428.848 750.702 428.848 705.009C428.848 659.315 391.817 622.273 346.138 622.273C300.458 622.273 263.428 659.315 263.428 705.009C263.428 750.702 300.458 787.744 346.138 787.744Z"
      fill="#E42F9F" />
    <path
      d="M892.49 827.364C923.372 827.364 948.406 802.322 948.406 771.43C948.406 740.539 923.372 715.497 892.49 715.497C861.608 715.497 836.573 740.539 836.573 771.43C836.573 802.322 861.608 827.364 892.49 827.364Z"
      fill="#E42F9F" />
    <path
      d="M1106.84 512.737C1123.56 512.737 1137.13 499.172 1137.13 482.439C1137.13 465.706 1123.56 452.142 1106.84 452.142C1090.11 452.142 1076.55 465.706 1076.55 482.439C1076.55 499.172 1090.11 512.737 1106.84 512.737Z"
      fill="#E42F9F" />
    <path
      d="M880.841 270.357C914.296 270.357 941.417 243.228 941.417 209.762C941.417 176.296 914.296 149.167 880.841 149.167C847.385 149.167 820.264 176.296 820.264 209.762C820.264 243.228 847.385 270.357 880.841 270.357Z"
      fill="#E42F9F" />
    <path
      d="M325.169 76.9191C341.253 76.9191 354.292 63.8762 354.292 47.787C354.292 31.6977 341.253 18.6548 325.169 18.6548C309.085 18.6548 296.046 31.6977 296.046 47.787C296.046 63.8762 309.085 76.9191 325.169 76.9191Z"
      fill="#E42F9F" />
    <path
      d="M231.975 657.232C248.059 657.232 261.098 644.189 261.098 628.1C261.098 612.011 248.059 598.968 231.975 598.968C215.89 598.968 202.852 612.011 202.852 628.1C202.852 644.189 215.89 657.232 231.975 657.232Z"
      fill="#E42F9F" />
    <path
      d="M1170.91 319.299C1186.99 319.299 1200.03 306.256 1200.03 290.167C1200.03 274.078 1186.99 261.035 1170.91 261.035C1154.82 261.035 1141.78 274.078 1141.78 290.167C1141.78 306.256 1154.82 319.299 1170.91 319.299Z"
      fill="#774DF5" />
    <path
      d="M1124.31 815.711C1141.68 815.711 1155.76 801.625 1155.76 784.248C1155.76 766.872 1141.68 752.786 1124.31 752.786C1106.94 752.786 1092.86 766.872 1092.86 784.248C1092.86 801.625 1106.94 815.711 1124.31 815.711Z"
      fill="#774DF5" />
    <path
      d="M1194.21 818.042C1203.86 818.042 1211.68 810.216 1211.68 800.562C1211.68 790.909 1203.86 783.083 1194.21 783.083C1184.56 783.083 1176.73 790.909 1176.73 800.562C1176.73 810.216 1184.56 818.042 1194.21 818.042Z"
      fill="#774DF5" />
  </g>
  <path
    d="M477.738 447.644H654.264C654.264 447.644 660.835 447.345 660.835 439.58V424.348H470.719V442.716C471.764 445.852 474.453 447.793 477.738 447.644Z"
    fill="#040404" />
  <path
    d="M470.719 309.807L470.57 430.321L660.686 428.529V306.223C660.686 306.223 661.881 299.204 654.414 299.204H477.888C477.888 299.353 469.972 299.353 470.719 309.807Z"
    fill="#040404" />
  <path d="M550.768 480.05V446.45L578.547 447.644V477.064L550.768 480.05Z" fill="#040404" />
  <path d="M506.562 476.615H622.155L622.304 482.439H506.562V476.615Z" fill="#040404" />
  <path
    d="M564.059 432.71C567.196 432.71 569.585 435.1 569.585 438.236C569.585 441.372 567.196 443.761 564.059 443.761C560.923 443.761 558.534 441.372 558.534 438.236C558.534 435.1 561.073 432.71 564.059 432.71Z"
    fill="white" />
  <path d="M655.011 305.177H476.543V422.257H655.011V305.177Z" fill="#F8F8FF" />
  <path
    d="M485.504 311.151C486.998 311.151 488.342 312.495 488.342 313.988C488.342 315.482 486.998 316.826 485.504 316.826C484.011 316.826 482.667 315.482 482.667 313.988C482.667 312.495 484.011 311.151 485.504 311.151Z"
    fill="#FA5F5D" />
  <path
    d="M495.062 311.151C496.556 311.151 497.9 312.495 497.9 313.988C497.9 315.482 496.556 316.826 495.062 316.826C493.569 316.826 492.225 315.482 492.225 313.988C492.225 312.495 493.419 311.151 495.062 311.151Z"
    fill="#FDBC4E" />
  <path
    d="M504.919 311.151C506.413 311.151 507.757 312.495 507.757 313.988C507.757 315.482 506.413 316.826 504.919 316.826C503.426 316.826 502.082 315.482 502.082 313.988C502.231 312.495 503.426 311.151 504.919 311.151Z"
    fill="#37CD58" />
  <path
    d="M543.749 331.61C543.599 333.103 542.405 334.298 540.911 334.149H506.711C504.919 334.149 503.276 332.954 503.276 331.61V326.383C503.276 325.039 504.919 323.695 506.711 323.695H540.762C542.255 323.546 543.599 324.741 543.749 326.234V326.383V331.61Z"
    fill="url(#paint0_linear)" />
  <path
    d="M626.038 366.106C625.889 367.749 624.544 368.944 622.902 368.944H506.711C504.919 368.944 503.276 367.6 503.276 366.106V340.421C503.276 338.927 505.068 337.583 506.711 337.583H622.902C624.544 337.434 625.889 338.778 626.038 340.421V366.106Z"
    fill="url(#paint1_linear)" />
  <path
    d="M541.508 388.059C541.508 389.552 540.164 390.896 538.671 390.896H506.711C504.919 390.896 503.276 389.552 503.276 388.059V373.872C503.276 372.379 505.068 371.035 506.711 371.035H538.522C540.015 370.885 541.359 372.08 541.508 373.723V373.872V388.059Z"
    fill="url(#paint2_linear)" />
  <path
    d="M583.175 388.059C583.175 389.552 581.831 390.896 580.338 390.896H548.378C546.586 390.896 544.943 389.552 544.943 388.059V373.872C544.943 372.379 546.735 371.035 548.378 371.035H580.189C581.682 370.885 583.026 372.08 583.175 373.723V373.872V388.059Z"
    fill="url(#paint3_linear)" />
  <path
    d="M626.038 388.059C625.889 389.701 624.545 390.896 622.902 390.896H591.091C589.299 391.045 587.955 389.701 587.656 388.059V373.872C587.806 372.08 589.299 371.034 591.091 371.034H622.902C624.545 370.885 626.038 372.229 626.187 373.872L626.038 388.059Z"
    fill="url(#paint4_linear)" />
  <path
    d="M583.176 396.123C582.877 396.72 582.429 397.019 581.832 397.168C581.683 397.168 581.683 397.168 581.533 396.72H546.587C545.84 397.168 544.794 396.72 544.794 396.123V395.675C544.794 395.078 545.84 394.48 546.587 394.331H581.533C582.131 394.48 582.429 394.928 582.579 395.376C582.579 395.526 582.579 395.526 582.877 395.675L583.176 396.123Z"
    fill="#ACAEB6" />
  <path
    d="M583.176 400.603C582.877 401.2 582.429 401.648 581.832 401.798C581.832 401.798 581.683 401.798 581.683 401.35H546.587C545.84 401.798 544.794 401.35 544.794 400.603V400.155C544.794 399.558 545.84 399.11 546.587 398.96H581.533C582.131 399.11 582.728 399.558 582.877 400.155L583.176 400.603Z"
    fill="#ACAEB6" />
  <path
    d="M583.175 405.233C582.877 405.979 582.429 406.427 581.831 406.577C581.831 406.278 581.831 406.278 581.831 405.979H546.735C546.138 406.278 545.391 406.278 545.092 405.681C544.943 405.531 544.943 405.382 544.943 405.382V404.934C544.943 404.337 545.989 404.038 546.735 403.739H581.682C582.279 403.889 582.877 404.337 583.026 404.934L583.175 405.233Z"
    fill="#ACAEB6" />
  <path
    d="M583.175 409.713C582.877 410.46 582.429 411.057 581.831 411.655H546.735C545.989 411.057 544.943 410.311 544.943 409.713V409.265C544.943 408.668 545.989 407.921 546.735 408.22H581.682C582.13 408.071 582.578 408.519 582.727 408.967C582.727 409.116 582.727 409.265 582.727 409.265C582.727 409.265 582.727 409.265 583.026 409.415L583.175 409.713Z"
    fill="#ACAEB6" />
  <path
    d="M563.761 414.342C563.761 414.939 563.462 415.089 562.715 415.089H546.586C545.839 415.089 544.943 414.79 544.943 414.342V413.894C544.943 413.297 545.839 412.849 546.586 412.849H562.715C563.313 412.849 563.761 413.297 563.761 413.894V414.342Z"
    fill="#ACAEB6" />
  <path
    d="M626.038 396.123C625.291 396.72 625.44 397.168 624.694 396.72H589.747C589.149 397.168 588.552 396.87 588.552 396.272C588.552 396.272 588.552 396.272 588.851 396.123V395.675C588.552 395.078 589 394.48 589.597 394.331H624.544C625.291 394.63 625.142 395.078 625.888 395.675V396.123H626.038Z"
    fill="#ACAEB6" />
  <path
    d="M626.037 400.603C625.291 401.201 625.44 401.798 624.693 401.35H589.747C589 401.798 588.552 401.35 589 400.603V400.155C588.701 399.558 589.149 399.11 589.747 398.96H624.693C625.44 399.259 625.291 399.558 626.037 400.155V400.603Z"
    fill="#ACAEB6" />
  <path
    d="M626.037 405.233C625.291 405.83 625.44 406.577 624.693 405.979H589.747C589 406.427 588.552 405.979 589 405.233V404.785C588.701 404.187 589.149 403.889 589.747 403.59H624.693C625.44 403.889 625.291 404.187 626.037 404.785V405.233Z"
    fill="#ACAEB6" />
  <path
    d="M626.037 409.713C625.291 410.311 625.44 411.057 624.693 411.655H589.747C589 410.908 588.552 410.311 589 409.713V409.265C588.701 408.967 588.701 408.518 589 408.369C589.299 408.22 589.448 408.071 589.747 408.22H624.843C625.589 407.921 625.44 408.668 626.187 409.265V409.713H626.037Z"
    fill="#ACAEB6" />
  <path
    d="M606.773 414.342C606.773 414.939 606.773 415.089 606.175 415.089H589.897C589.15 415.089 588.851 414.79 588.851 414.342V413.894C588.851 413.297 589.299 412.849 589.897 412.849H606.026C606.773 412.849 606.623 413.297 606.623 413.894L606.773 414.342Z"
    fill="#ACAEB6" />
  <path
    d="M540.313 396.123C540.761 396.72 540.612 397.168 539.865 396.72H504.769C504.321 397.019 503.724 397.019 503.425 396.571C503.276 396.422 503.276 396.272 503.126 396.123V395.675C503.425 394.928 503.873 394.48 504.62 394.331H539.566C540.313 394.63 540.463 395.078 540.014 395.675L540.313 396.123Z"
    fill="#ACAEB6" />
  <path
    d="M540.314 400.603C540.762 401.201 540.612 401.798 539.866 401.35H504.77C504.023 401.947 503.425 401.35 503.276 400.603V400.155C503.425 399.558 504.023 399.11 504.77 398.96H539.716C540.463 399.259 540.612 399.558 540.164 400.155L540.314 400.603Z"
    fill="#ACAEB6" />
  <path
    d="M540.314 405.233C540.762 405.83 540.612 406.577 539.866 405.979H504.77C504.023 406.577 503.425 405.979 503.276 405.233V404.785C503.425 404.187 504.023 403.889 504.77 403.59H539.716C540.463 403.889 540.612 404.187 540.164 404.785L540.314 405.233Z"
    fill="#ACAEB6" />
  <path
    d="M529.86 408.22H539.866C540.612 407.921 540.762 408.668 540.314 409.265V409.713C540.762 410.311 540.612 411.057 539.866 411.655H504.77C504.023 411.207 503.575 410.46 503.276 409.713V409.265C503.425 408.518 504.023 408.071 504.77 408.22H529.86Z"
    fill="#ACAEB6" />
  <path
    d="M522.99 414.342C522.99 414.939 522.691 415.089 521.944 415.089H504.62C503.874 415.089 503.276 414.79 503.276 414.342V413.894C503.425 413.297 504.023 412.849 504.62 412.849H521.944C522.542 412.849 522.99 413.297 522.99 413.745C522.99 413.745 522.99 413.745 522.99 413.894V414.342Z"
    fill="#ACAEB6" />
  <path d="M511.179 180.777L439.796 120.753L379.768 192.132L451.151 252.156L511.179 180.777Z" stroke="black"
    stroke-width="5" stroke-miterlimit="10" />
  <path d="M381.709 191.831L437.714 125.078L504.471 181.228L448.467 247.832L381.709 191.831Z" fill="url(#paint5_linear)"
    stroke="url(#paint6_linear)" stroke-width="5" stroke-miterlimit="10" />
  <path d="M365.132 203.815L378.006 187.949L453.586 252.504L440.711 268.371L365.132 203.815Z" fill="black"
    stroke="black" stroke-miterlimit="10" />
  <path
    d="M462.954 190.338C458.174 190.338 401.423 206.317 401.423 206.317L445.48 243.651L453.246 224.237C453.246 224.237 464.447 190.338 462.954 190.338Z"
    fill="white" />
  <path d="M440.552 116.416H352.886V204.076H440.552V116.416Z" fill="url(#paint7_linear)" stroke="url(#paint8_linear)"
    stroke-miterlimit="10" />
  <path d="M439.805 115.67H352.139V203.33H439.805V115.67Z" stroke="black" stroke-width="5" stroke-miterlimit="10" />
  <path d="M442.406 203.628H349.691V223.191H442.406V203.628Z" fill="black" />
  <path d="M401.125 201.837L425.916 160.172L438.909 178.242V202.583H428.753L401.125 201.837Z" fill="white" />
  <path d="M377.379 202.285L406.949 162.86L430.247 202.584L377.379 202.285Z" fill="white" />
  <path
    d="M379.768 132.545C383.651 132.545 386.787 135.681 386.787 139.564C386.787 143.446 383.651 146.583 379.768 146.583C375.885 146.583 372.749 143.446 372.749 139.564C372.749 135.681 375.885 132.545 379.768 132.545Z"
    fill="white" />
  <path
    d="M354.827 464.818C354.827 467.954 352.438 470.344 349.301 470.344H268.954C265.967 470.344 263.428 467.954 263.428 464.818V294.425C263.428 291.439 265.817 288.9 268.954 288.9H349.301C352.288 288.9 354.827 291.289 354.827 294.425V464.818Z"
    fill="url(#paint9_linear)" />
  <path d="M346.613 313.093H272.687V447.496H346.613V313.093Z" fill="white" />
  <path d="M272.837 447.645V312.944L322.569 312.794L292.998 447.496L272.837 447.645Z" fill="white" />
  <path
    d="M303.602 302.191H314.504C315.251 302.191 315.997 302.789 315.997 303.685C315.997 304.431 315.4 305.178 314.504 305.178H303.602C302.855 305.178 302.108 304.581 302.108 303.685C302.108 302.789 302.706 302.191 303.602 302.191Z"
    fill="black" stroke="black" stroke-miterlimit="10" />
  <path
    d="M309.128 298.309C309.87 298.309 310.472 297.707 310.472 296.965C310.472 296.222 309.87 295.621 309.128 295.621C308.385 295.621 307.783 296.222 307.783 296.965C307.783 297.707 308.385 298.309 309.128 298.309Z"
    fill="black" />
  <path
    d="M309.128 454.365C311.517 454.365 313.459 456.307 313.459 458.696C313.459 461.085 311.517 463.027 309.128 463.027C306.738 463.027 304.797 461.085 304.797 458.696C304.946 456.307 306.738 454.365 309.128 454.365Z"
    fill="url(#paint10_linear)" stroke="url(#paint11_linear)" stroke-miterlimit="10" />
  <path
    d="M309.128 463.027C311.52 463.027 313.459 461.088 313.459 458.696C313.459 456.304 311.52 454.365 309.128 454.365C306.736 454.365 304.797 456.304 304.797 458.696C304.797 461.088 306.736 463.027 309.128 463.027Z"
    stroke="black" stroke-width="2" stroke-miterlimit="10" />
  <g clip-path="url(#clip0)">
    <path
      d="M871.24 344.018L913.162 335.986C913.162 335.986 916.652 318.527 915.604 315.391C914.556 312.254 913.572 305.444 907.639 303.347C901.706 301.25 893.714 284.547 873.819 297.822C853.925 311.096 864.578 326.915 864.578 326.915L871.24 344.018Z"
      fill="black" />
    <path
      d="M900.767 308.982C900.767 308.982 879.907 317.041 875.158 319.011C870.41 320.98 867.868 326.715 867.868 326.715C867.868 326.715 865.535 325.329 865.535 329.286C865.535 333.242 867.476 342.159 868.889 344.429C871.317 348.278 873.529 352.259 875.514 356.354C877.446 360.439 876.744 368.918 874.767 370.103C872.789 371.288 837.557 402.979 837.557 402.979L808.257 372.574L773.162 337.929L758.307 306.976C758.307 306.976 744.145 283.782 742.267 281.047C727.686 259.549 724.287 269.66 723.503 277.956C723.275 280.372 724.032 289.59 725.544 291.495L793.958 378.108L809.451 383.578L837.511 402.934L847.8 420.357L945.186 437.862L957.844 488.644C957.844 488.644 965.711 428.27 965.711 420.357C965.711 412.443 972.547 410.089 972.547 410.089C972.769 409.949 973.273 409.876 973.273 409.876C973.273 409.876 973.654 409.876 974.06 410.043C975.526 410.486 975.638 413.651 977.201 414.221C978.764 414.79 981.657 417.804 981.657 417.804C983.18 419.03 984.316 420.67 984.93 422.527C985.545 424.383 985.61 426.377 985.12 428.27L970.165 486.182C970.165 486.182 908.641 375.355 905.524 368.79C904.121 365.845 905.615 358.761 906.436 355.114C907.183 351.768 908.814 347.593 910.4 346.398C911.986 345.204 914.747 339.67 914.747 337.281C914.747 334.893 915.212 327.362 913.17 329.359C912.614 329.906 909.899 325.63 909.106 322.065C907.801 316.922 904.878 312.335 900.767 308.982Z"
      fill="url(#paint12_linear)" />
    <path
      d="M836.455 532.059C836.455 532.059 822.393 647.628 821.527 655.013C820.661 662.398 826.302 701.036 826.302 708.421C826.302 715.806 840.091 794.505 840.091 794.505L861.89 793.52C861.89 793.52 857.552 677.587 857.98 671.943C858.409 666.3 882.286 599.006 882.286 599.006C882.286 599.006 884.026 616.812 884.026 622.455C884.026 628.099 890.633 792.034 890.633 792.034H909.635L936.656 550.594L936.136 545.944L836.455 532.059Z"
      fill="black" />
    <path
      d="M892.72 399.378C892.408 399.803 891.996 400.146 891.52 400.375C891.045 400.605 890.52 400.715 889.993 400.695C889.465 400.675 888.95 400.526 888.493 400.262C888.036 399.997 887.651 399.625 887.371 399.177C886.257 397.506 885.252 395.764 884.364 393.962C882.814 390.871 870.876 373.184 870.876 373.184C870.876 373.184 847.482 371.497 842.369 369.255C837.102 366.948 832.226 368.288 826.211 366.474C820.816 364.851 806.472 356.646 802.835 354.886C793.303 350.254 787.643 344.556 773.199 327.535C762.791 315.245 759.21 305.252 757.442 303.83C751.181 298.752 735.807 309.018 735.807 309.018C735.807 309.018 762.91 360.776 771.959 369.291C781.884 378.6 801.323 391.592 816.278 395.01C827.842 397.664 839.972 421.158 841.075 425.562C844.201 438.435 834.24 522.204 834.24 522.204C834.24 522.204 833.857 538.076 836.974 539.626C839.708 540.994 873.327 553.867 881.064 556.83C881.27 556.908 881.489 556.944 881.709 556.935C881.928 556.927 882.144 556.874 882.343 556.781C882.542 556.687 882.72 556.555 882.867 556.391C883.013 556.227 883.126 556.036 883.197 555.827L888.136 541.659C888.156 541.598 888.194 541.545 888.245 541.507C888.297 541.469 888.359 541.448 888.424 541.448C888.488 541.448 888.55 541.469 888.602 541.507C888.653 541.545 888.692 541.598 888.711 541.659L893.431 557.159C893.562 557.529 893.822 557.839 894.164 558.032C894.506 558.225 894.906 558.287 895.29 558.207L936.656 549.3C936.656 549.3 936.082 472.944 936.793 460.189C937.485 447.689 935.881 440.733 938.132 444.106C940.602 447.89 946.107 486.601 948.904 491.688C951.155 495.8 957.817 497.742 963.094 498.654C965.137 499.015 967.238 498.826 969.184 498.106C971.13 497.387 972.849 496.163 974.167 494.56L979.899 487.568C981.512 485.598 980.81 475.551 980.591 472.98C979.908 464.529 979.981 452.503 980.874 446.796C982.041 439.438 963.249 449.294 963.249 441.152C963.249 427.768 952.659 397.436 952.659 397.436C952.659 397.436 950.718 389.303 936.793 385.045C922.867 380.788 912.378 374.643 909.735 374.67C907.256 374.67 899.464 389.485 895.983 393.743C894.443 395.685 894.716 396.579 892.72 399.378Z"
      fill="url(#paint13_linear)" />
    <path
      d="M907.411 791.779L890.87 791.943C890.87 791.943 887.462 807.752 885.685 814.344C885.566 814.763 885.22 815.839 884.983 816.614C884.726 817.747 884.616 818.908 884.655 820.069C884.992 826.059 887.225 831.128 892.547 833.836C898.407 836.808 902.927 839.543 909.161 833.836C915.395 828.129 916.224 824.537 913.827 814.626C911.43 804.716 910.665 792.171 909.188 791.834"
      fill="#774DF5" />
    <path
      d="M820.26 812.228C832.463 808.837 840.628 794.404 840.628 794.404L861.498 793.319C861.498 793.319 862.582 807.907 863.184 815.401C863.968 825.266 862.008 829.669 854.517 829.141C844.675 828.439 804.503 831.602 798.206 828.083C790.004 823.524 808.832 815.401 820.26 812.228Z"
      fill="#774DF5" />
    <path opacity="0.07"
      d="M885.612 587.254C882.924 595.131 872.434 610.393 865.718 619.483C859.001 628.573 837.849 647.992 839.189 671.606C840.528 695.219 854.836 755.839 854.836 761.291C854.836 766.743 849.487 792.517 845.44 800.412C841.394 808.308 839.489 822.649 841.503 822.649C845.321 822.534 849.116 822.03 852.831 821.145C856.303 820.233 861.088 819.321 863.038 818.41C864.414 817.771 864.706 813.313 864.706 813.313C864.842 811.402 864.623 809.482 864.059 807.651C863.603 806.475 861.899 800.467 861.835 798.735C860.988 776.535 859.101 725.187 859.484 721.595C860.177 714.866 854.845 680.996 859.712 664.303C864.578 647.609 885.612 587.254 885.612 587.254Z"
      fill="black" />
    <path opacity="0.07"
      d="M835.051 545.097L831.479 572.794C831.479 572.794 835.124 578.511 836.035 573.706C836.947 568.901 844.638 559.757 840 553.257C835.361 546.756 835.051 545.097 835.051 545.097Z"
      fill="black" />
    <path opacity="0.07"
      d="M936.392 552.864L935.143 566.066L933.512 578.83C933.512 578.83 928.244 582.65 928.326 577.699C928.408 572.749 919.45 565.2 926.257 560.167C933.065 555.134 936.392 552.864 936.392 552.864Z"
      fill="black" />
    <path opacity="0.07"
      d="M870.775 373.448C871.687 373.248 866.219 374.743 871.021 373.157C879.224 370.421 875.815 354.922 875.815 354.922C875.815 354.922 876.663 360.73 884.455 363.064C892.092 365.343 894.352 363.657 882.632 369.191C871.103 374.661 877.045 376.548 877.829 383.66"
      fill="black" />
    <path opacity="0.07"
      d="M841.631 438.463L834.24 523.653C834.24 523.653 834.331 537.812 836.974 539.945C839.617 542.079 847.91 543.446 849.824 544.814C851.738 546.181 871.951 552.873 866.674 541.577C865.49 539.061 838.15 523.726 850.352 507.771C862.555 491.816 860.377 469.525 854.517 454.025C848.657 438.526 841.54 415.378 841.54 415.378L841.631 438.463Z"
      fill="black" />
    <path opacity="0.07"
      d="M964.306 443.577C964.306 443.577 970.576 445.756 975.925 443.522C983.927 440.185 978.778 468.713 980.373 478.049C981.585 485.069 974.094 500.514 963.057 498.681C952.021 496.848 948.348 495.727 946.024 481.121C944.256 469.944 961.39 466.725 961.39 456.086C961.39 445.446 964.306 443.577 964.306 443.577Z"
      fill="black" />
    <path opacity="0.07"
      d="M936.574 466.498C936.574 466.498 939.773 436.193 936.574 425.571C933.375 414.95 930.559 412.807 930.559 412.807L936.574 466.498Z"
      fill="black" />
  </g>
  <defs>
    <filter id="filter0_d" x="0" y="0" width="1241" height="880.352" filterUnits="userSpaceOnUse"
      color-interpolation-filters="sRGB">
      <feFlood flood-opacity="0" result="BackgroundImageFix" />
      <feColorMatrix in="SourceAlpha" type="matrix" values="0 0 0 0 0 0 0 0 0 0 0 0 0 0 0 0 0 0 127 0" />
      <feOffset dy="10" />
      <feGaussianBlur stdDeviation="10" />
      <feColorMatrix type="matrix" values="0 0 0 0 0 0 0 0 0 0 0 0 0 0 0 0 0 0 0.25 0" />
      <feBlend mode="normal" in2="BackgroundImageFix" result="effect1_dropShadow" />
      <feBlend mode="normal" in="SourceGraphic" in2="effect1_dropShadow" result="shape" />
    </filter>
    <linearGradient id="paint0_linear" x1="503.276" y1="323.683" x2="508.361" y2="343.324"
      gradientUnits="userSpaceOnUse">
      <stop stop-color="#43CBFF" />
      <stop offset="1" stop-color="#9708CC" />
    </linearGradient>
    <linearGradient id="paint1_linear" x1="503.276" y1="337.572" x2="518.328" y2="396.469"
      gradientUnits="userSpaceOnUse">
      <stop stop-color="#E42F9F" />
      <stop offset="1" stop-color="#0D25B9" />
    </linearGradient>
    <linearGradient id="paint2_linear" x1="503.276" y1="371.022" x2="519.543" y2="402.315"
      gradientUnits="userSpaceOnUse">
      <stop stop-color="#E42F9F" />
      <stop offset="1" stop-color="#0D25B9" />
    </linearGradient>
    <linearGradient id="paint3_linear" x1="544.943" y1="371.022" x2="561.21" y2="402.315"
      gradientUnits="userSpaceOnUse">
      <stop stop-color="#E42F9F" />
      <stop offset="1" stop-color="#0D25B9" />
    </linearGradient>
    <linearGradient id="paint4_linear" x1="587.656" y1="371.023" x2="603.863" y2="402.428"
      gradientUnits="userSpaceOnUse">
      <stop stop-color="#E42F9F" />
      <stop offset="1" stop-color="#0D25B9" />
    </linearGradient>
    <linearGradient id="paint5_linear" x1="381.709" y1="125.078" x2="504.464" y2="247.839"
      gradientUnits="userSpaceOnUse">
      <stop stop-color="#E42F9F" />
      <stop offset="1" stop-color="#0D25B9" />
    </linearGradient>
    <linearGradient id="paint6_linear" x1="381.709" y1="125.078" x2="504.464" y2="247.839"
      gradientUnits="userSpaceOnUse">
      <stop stop-color="#E42F9F" />
      <stop offset="1" stop-color="#0D25B9" />
    </linearGradient>
    <linearGradient id="paint7_linear" x1="352.886" y1="116.416" x2="440.546" y2="204.082"
      gradientUnits="userSpaceOnUse">
      <stop stop-color="#E42F9F" />
      <stop offset="1" stop-color="#0D25B9" />
    </linearGradient>
    <linearGradient id="paint8_linear" x1="352.886" y1="116.416" x2="440.546" y2="204.082"
      gradientUnits="userSpaceOnUse">
      <stop stop-color="#E42F9F" />
      <stop offset="1" stop-color="#0D25B9" />
    </linearGradient>
    <linearGradient id="paint9_linear" x1="263.428" y1="288.9" x2="409.23" y2="362.345" gradientUnits="userSpaceOnUse">
      <stop stop-color="#E42F9F" />
      <stop offset="1" stop-color="#0D25B9" />
    </linearGradient>
    <linearGradient id="paint10_linear" x1="304.797" y1="454.365" x2="313.458" y2="463.027"
      gradientUnits="userSpaceOnUse">
      <stop stop-color="#E42F9F" />
      <stop offset="1" stop-color="#0D25B9" />
    </linearGradient>
    <linearGradient id="paint11_linear" x1="304.797" y1="454.365" x2="313.458" y2="463.027"
      gradientUnits="userSpaceOnUse">
      <stop stop-color="#E42F9F" />
      <stop offset="1" stop-color="#0D25B9" />
    </linearGradient>
    <linearGradient id="paint12_linear" x1="1054.92" y1="389.427" x2="749.629" y2="297.55"
      gradientUnits="userSpaceOnUse">
      <stop offset="0.296247" stop-color="#DD9B30" />
      <stop offset="1" stop-color="#EDB459" />
    </linearGradient>
    <linearGradient id="paint13_linear" x1="735.807" y1="302.419" x2="991.395" y2="547.322"
      gradientUnits="userSpaceOnUse">
      <stop stop-color="#E42F9F" />
      <stop offset="1" stop-color="#0D25B9" />
    </linearGradient>
    <clipPath id="clip0">
      <rect width="262" height="569" fill="white" transform="translate(723.467 268.173)" />
    </clipPath>
  </defs>
</svg>